<?xml version="1.0" encoding="UTF-8" standalone="no"?>
<!-- Created with Inkscape (http://www.inkscape.org/) -->

<svg
   xmlns:dc="http://purl.org/dc/elements/1.1/"
   xmlns:cc="http://creativecommons.org/ns#"
   xmlns:rdf="http://www.w3.org/1999/02/22-rdf-syntax-ns#"
   xmlns:svg="http://www.w3.org/2000/svg"
   xmlns="http://www.w3.org/2000/svg"
   xmlns:sodipodi="http://sodipodi.sourceforge.net/DTD/sodipodi-0.dtd"
   xmlns:inkscape="http://www.inkscape.org/namespaces/inkscape"
   width="100%"
   height="100%"
   viewBox="0 0 2625.2542 1771.2416"
   id="svg2"
   version="1.1"
   inkscape:version="0.48.4 r9939"
   sodipodi:docname="map-kb-pasteur-f-1.svg">
  <defs
     id="defs4" />
  <sodipodi:namedview
     id="base"
     pagecolor="#ffffff"
     bordercolor="#666666"
     borderopacity="1.0"
     inkscape:pageopacity="0.0"
     inkscape:pageshadow="2"
     inkscape:zoom="0.24748737"
     inkscape:cx="2116.9454"
     inkscape:cy="687.64163"
     inkscape:document-units="px"
     inkscape:current-layer="layer1"
     showgrid="false"
     fit-margin-top="0"
     fit-margin-left="0"
     fit-margin-right="0"
     fit-margin-bottom="0"
     inkscape:window-width="1364"
     inkscape:window-height="754"
     inkscape:window-x="0"
     inkscape:window-y="12"
     inkscape:window-maximized="0" />
  <metadata
     id="metadata7">
    <rdf:RDF>
      <cc:Work
         rdf:about="">
        <dc:format>image/svg+xml</dc:format>
        <dc:type
           rdf:resource="http://purl.org/dc/dcmitype/StillImage" />
        <dc:title />
      </cc:Work>
    </rdf:RDF>
  </metadata>
  <g
     inkscape:label="Layer 1"
     inkscape:groupmode="layer"
     id="layer1"
     transform="translate(460.31088,205.06008)">
    <path
       style="fill:none;stroke:#000000;stroke-width:6;stroke-miterlimit:4"
       d="m 1210.6344,1231.07 0.02,-9.8146 -67.5428,0 c 0,-37.3029 30.24,-67.5428 67.5428,-67.5428 37.3029,0 67.5428,30.2399 67.5428,67.5428 0,37.3028 -30.2399,67.5428 -67.5428,67.5428 -0.026,0 -0.052,0 -0.078,-10e-5 l 0.039,-11.548"
       id="path3977"
       inkscape:connector-curvature="0"
       sodipodi:nodetypes="cccssscc" />
    <path
       id="path4029"
       style="fill:none;stroke:#000000;stroke-width:6;stroke-linecap:butt;stroke-linejoin:miter;stroke-miterlimit:4;stroke-opacity:1;stroke-dasharray:none"
       d="m 381.09281,-60.167783 -9.64286,0 m -33.21429,0 -10,0 m 41.39315,-52.998897 11.5166,0 -0.061,53.032897 c 0.02,1e-4 0.04,1e-4 0.061,1e-4 29.2893,0 53.033,-23.7437 53.033,-53.032997 0,-29.2894 -23.7437,-53.033 -53.033,-53.033 -29.2894,0 -53.0331,23.7436 -53.0331,53.033 l 0,118.900697 81.3625,0 0,-12.0535 m 0,-38.125 0,-22.3215"
       inkscape:connector-curvature="0"
       sodipodi:nodetypes="cccccccssssccccc" />
    <path
       style="fill:none;stroke:#000000;stroke-width:1px;stroke-linecap:butt;stroke-linejoin:miter;stroke-opacity:1"
       d="m 1915.1891,684.30549 38.2143,-16.78571"
       id="path4052"
       inkscape:connector-curvature="0" />
    <text
       xml:space="preserve"
       style="font-size:32px;font-style:normal;font-weight:normal;line-height:125%;letter-spacing:0px;word-spacing:0px;fill:#000000;fill-opacity:1;stroke:none;font-family:Sans"
       x="80.934357"
       y="285.46933"
       id="text4054"
       sodipodi:linespacing="125%"><tspan
         sodipodi:role="line"
         id="tspan4056"
         x="80.934357"
         y="285.46933">SM02</tspan></text>
    <text
       xml:space="preserve"
       style="font-size:32px;font-style:normal;font-weight:normal;line-height:125%;letter-spacing:0px;word-spacing:0px;fill:#000000;fill-opacity:1;stroke:none;font-family:Sans"
       x="-127.95741"
       y="59.434776"
       id="text4058"
       sodipodi:linespacing="125%"><tspan
         sodipodi:role="line"
         id="tspan4060"
         x="-127.95741"
         y="59.434776">SM03</tspan></text>
    <text
       xml:space="preserve"
       style="font-size:40px;font-style:normal;font-weight:normal;text-align:center;line-height:125%;letter-spacing:0px;word-spacing:0px;text-anchor:middle;fill:#000000;fill-opacity:1;stroke:none;font-family:Sans"
       x="-121.06677"
       y="1229.4613"
       id="text4062"
       sodipodi:linespacing="125%"><tspan
         sodipodi:role="line"
         id="tspan4064"
         x="-121.06677"
         y="1229.4613"
         style="font-size:32.0000006px">Toilettes</tspan><tspan
         sodipodi:role="line"
         x="-121.06677"
         y="1279.4613"
         id="tspan4066"
         style="font-size:32.0000006px">mixtes</tspan></text>
    <text
       xml:space="preserve"
       style="font-size:24px;font-style:normal;font-weight:normal;line-height:125%;letter-spacing:0px;word-spacing:0px;fill:#000000;fill-opacity:1;stroke:none;font-family:Sans"
       x="993.6886"
       y="1038.2372"
       id="text4068"
       sodipodi:linespacing="125%"><tspan
         sodipodi:role="line"
         id="tspan4070"
         x="993.6886"
         y="1038.2372">BDE Epitech</tspan></text>
    <text
       xml:space="preserve"
       style="font-size:24px;font-style:normal;font-weight:normal;text-align:center;line-height:125%;letter-spacing:0px;word-spacing:0px;text-anchor:middle;fill:#000000;fill-opacity:1;stroke:none;font-family:Sans"
       x="1427.2864"
       y="569.62244"
       id="text4072"
       sodipodi:linespacing="125%"><tspan
         sodipodi:role="line"
         id="tspan4074"
         x="1427.2864"
         y="569.62244">BDE</tspan><tspan
         sodipodi:role="line"
         x="1427.2864"
         y="599.62244"
         id="tspan3029">Epita</tspan></text>
    <text
       xml:space="preserve"
       style="font-size:24px;font-style:normal;font-weight:normal;line-height:125%;letter-spacing:0px;word-spacing:0px;fill:#000000;fill-opacity:1;stroke:none;font-family:Sans"
       x="1573.1206"
       y="628.74036"
       id="text4076"
       sodipodi:linespacing="125%"><tspan
         sodipodi:role="line"
         id="tspan4078"
         x="1573.1206"
         y="628.74036">LATEB</tspan></text>
    <text
       xml:space="preserve"
       style="font-size:24px;font-style:normal;font-weight:normal;line-height:125%;letter-spacing:0px;word-spacing:0px;fill:#000000;fill-opacity:1;stroke:none;font-family:Sans"
       x="1440.671"
       y="767.68903"
       id="text4080"
       sodipodi:linespacing="125%"><tspan
         sodipodi:role="line"
         id="tspan4082"
         x="1440.671"
         y="767.68903">Epitanime</tspan></text>
    <text
       xml:space="preserve"
       style="font-size:24px;font-style:normal;font-weight:normal;line-height:125%;letter-spacing:0px;word-spacing:0px;fill:#000000;fill-opacity:1;stroke:none;font-family:Sans"
       x="1167.2864"
       y="1209.4292"
       id="text4084"
       sodipodi:linespacing="125%"><tspan
         sodipodi:role="line"
         id="tspan4086"
         x="1167.2864"
         y="1209.4292">Pasteur</tspan></text>
    <text
       xml:space="preserve"
       style="font-size:24px;font-style:normal;font-weight:normal;line-height:125%;letter-spacing:0px;word-spacing:0px;fill:#000000;fill-opacity:1;stroke:none;font-family:Sans"
       x="335.22256"
       y="-119.24017"
       id="text4088"
       sodipodi:linespacing="125%"><tspan
         sodipodi:role="line"
         id="tspan4090"
         x="335.22256"
         y="-119.24017">Pasteur</tspan></text>
    <text
       xml:space="preserve"
       style="font-size:32px;font-style:normal;font-weight:normal;line-height:125%;letter-spacing:0px;word-spacing:0px;fill:#000000;fill-opacity:1;stroke:none;font-family:Sans"
       x="1034.1096"
       y="1447.6837"
       id="text4092"
       sodipodi:linespacing="125%"><tspan
         sodipodi:role="line"
         id="tspan4094"
         x="1034.1096"
         y="1447.6837">Pasteur </tspan></text>
    <g
       transform="translate(171.75551,1532.8769)"
       style="font-size:64px;font-style:normal;font-weight:normal;line-height:125%;letter-spacing:0px;word-spacing:0px;fill:#000000;fill-opacity:1;stroke:none;font-family:Sans"
       id="text4096">
      <path
         d="m 1048.6901,-98.036942 0,2.8125 -12.2812,12.28125 -3.75,-3.75 7.2812,-7.28125 -38.0937,0 0,-5.3125 38.0937,0 -7.2812,-7.281248 3.75,-3.75 12.2812,12.281248"
         id="path4101"
         inkscape:connector-curvature="0" />
    </g>
    <text
       xml:space="preserve"
       style="font-size:32px;font-style:normal;font-weight:normal;line-height:125%;letter-spacing:0px;word-spacing:0px;fill:#000000;fill-opacity:1;stroke:none;font-family:Sans"
       x="1985.7749"
       y="857.11115"
       id="text4103"
       sodipodi:linespacing="125%"><tspan
         sodipodi:role="line"
         id="tspan4105"
         x="1985.7749"
         y="857.11115">e-artsup</tspan></text>
    <text
       xml:space="preserve"
       style="font-size:24px;font-style:normal;font-weight:normal;line-height:125%;letter-spacing:0px;word-spacing:0px;fill:#000000;fill-opacity:1;stroke:none;font-family:Sans"
       x="2025.3555"
       y="83.200035"
       id="text4107"
       sodipodi:linespacing="125%"><tspan
         sodipodi:role="line"
         id="tspan4109"
         x="2025.3555"
         y="83.200035">Unisson</tspan></text>
    <text
       xml:space="preserve"
       style="font-size:24px;font-style:normal;font-weight:normal;line-height:125%;letter-spacing:0px;word-spacing:0px;fill:#000000;fill-opacity:1;stroke:none;font-family:Sans"
       x="1455"
       y="1107.67"
       id="text3896"
       sodipodi:linespacing="125%"
       transform="translate(-460.31088,-205.06008)"><tspan
         sodipodi:role="line"
         id="tspan3898"
         x="1455"
         y="1107.67">CAST</tspan></text>
    <text
       xml:space="preserve"
       style="font-size:24px;font-style:normal;font-weight:normal;line-height:125%;letter-spacing:0px;word-spacing:0px;fill:#000000;fill-opacity:1;stroke:none;font-family:Sans"
       x="1118.5576"
       y="837.86157"
       id="text3915"
       sodipodi:linespacing="125%"><tspan
         sodipodi:role="line"
         id="tspan3917"
         x="1118.5576"
         y="837.86157">ASME</tspan></text>
    <text
       xml:space="preserve"
       style="font-size:24px;font-style:normal;font-weight:normal;line-height:125%;letter-spacing:0px;word-spacing:0px;fill:#000000;fill-opacity:1;stroke:none;font-family:Sans"
       x="1213.512"
       y="949.98834"
       id="text3919"
       sodipodi:linespacing="125%"><tspan
         sodipodi:role="line"
         id="tspan3921"
         x="1213.512"
         y="949.98834">Episport</tspan></text>
    <path
       id="path3925"
       transform="translate(-460.31088,-205.06008)"
       style="fill:none;stroke:#000000;stroke-width:6;stroke-linecap:butt;stroke-linejoin:miter;stroke-miterlimit:4;stroke-opacity:1;stroke-dasharray:none"
       d="m 2347.8572,1151.063 53.0357,-53.0357 -130.1786,-130.17859 m 0.7143,183.39289 0,-182.85718 M 1787.7679,749.0987 1917.8125,879.14335 m -83.8805,83.4711 149.5026,-149.50258 m -22.006,-22.22745 65,-65 m -172.2936,-42.07207 251.0229,251.02291 m 3.4135,-3.50441 -9.264,8.96556 m -17.6109,17.46301 -170.0893,170.80358 -51.25,-50.5357 -8.4758,-37.4096 m -6.4555,-27.3081 -27.5582,-127.09468 m -7.1026,-32.89793 -23.2651,-103.86114 43.75,-44.28572 m 18.7054,-17.72321 8.3482,-7.72322 m 17.2321,-17.76786 43.3929,-43.92857 112.6518,113.91449 m 19.7177,19.46523 119.2376,118.22743 -43.609,43.22258 m -495.1515,208.7302 65.9315,-65.8422 m -19.8433,-23.9351 90.2824,-90.28238 m 10.4645,193.28638 -189.1511,-189.15107 m -10.7985,122.72157 163.7704,163.7703 m -351.3596,-88.4131 56.0714,56.0714 131.6071,-131.6071 -54.8214,-54.8215 m 6.2308,286.4286 -17.3022,0 -48.9081,48.8604 -138.2348,-138.8604 20.5519,-20.2994 m 20.5519,-20.2994 94.1369,-93.6317 m 20.9008,-22.1635 85.8031,-85.298 m 17.6177,-17.11271 9.7892,-10.04165 m 18.6279,-18.62793 121.6635,-122.16858 23.6808,99.32026 m 6.2557,28.35705 15.5023,68.47422 m 8.9362,32.86634 18.125,76.3393 -29.2857,29.2857 31.0299,31.1562 -20.0446,20.8705 m -23.9318,24.0001 -32.9464,31.7411 m -28.8393,28.616 -28.8393,28.6161 -111.376,0 m 784.4748,-33.6172 0,-40.551 m 0,-34.5612 0,-40.2978 -18.4908,0.049 m -29.5621,-0.1968 -113.4101,0.7225 -24.7187,-22.4279 m -21.9604,-22.5286 -8.9603,-8.54 173.6658,-161.98785 c 21.6858,-22.17104 48.4089,-36.66518 73.1775,-48.27132 m 34.4293,-14.78089 c 54.2957,-15.9655 151.3829,-17.66346 209.5811,0.42275 m -533.3605,328.04701 0,64.3973 m -546.9976,228.2945 0,-68.1854 12.1218,0 m 38.1333,0 12.3744,0 0,12.6269 m 0,46.4671 0,8.5862 m -1464.69293,-24.8288 -21.68854,-21.4359 m -27.24439,-27.497 -19.6385,-19.6385 m 167.85715,197.8571 -48.57143,-48.5714 m -68.57143,66.4286 136.07143,-136.0715 -64.28572,-64.2857 -137.14285,137.1429 z M 233.71429,1731.5083 373,1592.2227 l -63.92857,-63.9285 -137.5,137.5 z m 344.59724,36.7332 -155.31095,-155.311 -17.29886,17.0464 m -23.35978,22.6022 -114.39977,115.41 -71.97337,-71.9735 -191.18309,0 M 12.12103,2.99997 l 2444.45037,0 165.6828,165.6828 0,1096.39703 -586.397,0 0,502.8571 -2032.8572,0 0,-297.1428 150,-150 -138.57143,-138.5714 180,-180 0,-224.28573 -173.57143,-173.5714 148.57143,-148.5715 0,-289.2857 z m 1298.04607,1494.51543 0,-53.5328 -14.3341,-15.0483 m -30.5874,-29.9778 -10.8895,-10.7848 44.9518,-44.9518 -116.6726,-116.6726 m -9.3798,270.611 -112.3436,-112.5221 85.2489,-86.6775 m 36.9102,-36.1959 19.7674,-19.0531 m 469.0326,251.1397 -798.08985,6.9448 M 319.71248,614.6474 694.22654,242.1536 m 34.85026,-36.8705 16.92006,-16.9201 m -579.82756,270.7209 84.66341,84.4109 m 33.65071,35.9235 109.22274,110.2329 m 38.51207,37.7545 33.4613,31.18841 L 891.9639,332.3097 879.61056,320.3135 M 842.9715,283.3173 563.66432,4.0102 m 411.63717,332.8452 0,-259.6092 130.30971,0 0,262.6397 z m 737.83701,1038.3498 271.4687,-162.0896 51.2481,51.9426 0,-63.7647 104.3777,0 m 34.7506,0 42.3215,0 0,64.3972"
       inkscape:connector-curvature="0"
       sodipodi:nodetypes="cccccccccccccccccccccccccccccccccccccccccccccccccccccccccccccccccccccccccccccccccccccccccccccccccccccccccccccccccccccccccccccccccccccccccccccccccccccccccccccccccccccccccccccc" />
    <path
       style="fill:none;stroke:#000000;stroke-width:6;stroke-linecap:butt;stroke-linejoin:miter;stroke-miterlimit:4;stroke-opacity:1;stroke-dasharray:none"
       d="m 1310.1679,1493.3234 17.0983,-0.1105 m 29.2412,-0.1105 51.6967,-0.2209 m 24.5538,-0.221 108.4824,-0.7567"
       id="path3928"
       inkscape:connector-curvature="0"
       transform="translate(-460.31088,-205.06008)"
       sodipodi:nodetypes="cccccc" />
    <path
       id="path3970"
       transform="translate(-460.31088,-205.06008)"
       style="fill:none;stroke:#000000;stroke-width:1px;stroke-linecap:butt;stroke-linejoin:miter;stroke-opacity:1"
       d="m 1851.7857,1042.1344 -6.995,-30.9234 m -34.4335,-159.61229 7.8571,36.07142 M 1830,705.70585 l 20.9822,-20.08929 m 24.8214,-25.08929 -19.1071,19.91072 m 195.625,71.69643 -21.875,-21.875 m 77.2321,202.05357 20.2679,-20.26786 m -47.4108,46.69643 20,-20 m 247.5631,289.57354 0,-42.4265 m -49.1989,-35.266 32.0894,0.036 m -167.3826,-19.9649 -26.264,-26.7691 m 39.5616,96.8639 -39.9011,0 m -371.2565,-272.14043 -7.1473,-30.69678 m 31.5172,131.96461 -9.5595,-35.67642 m -15.7356,217.18062 26.6964,-26.6964 m -88.6607,87.0536 30.9821,-30.9822 m -139.9107,-299.37496 20.8929,-20.89286 m -48.75,48.92857 c 1.25,-0.35714 20,-19.64286 20,-19.64286 M 1460,1076.063 l 22.8572,-23.75 m -137.6786,138.2143 22.6786,-22.5 m 160.8824,131.8518 36.7443,0 M 380.29181,1653.87 l 27.05221,-26.0701 m 999.62028,-136.2012 26.5179,-0.2232 m -107.6786,0.491 32.1429,-0.1785 M 119.70308,1448.7504 89.524771,1418.5721 M 795.74687,144.9264 l 38.13326,0 m 36.11295,13.3846 0,42.4264 0,-41.9214 m 801.05102,1326.8354 0,-53.2855 m -67.6803,53.7906 0,-51.7703 m -53.538,-8.8389 43.9416,0 M 692.20623,243.9214 730.33949,204.0204 M 881.10476,321.9557 840.31985,281.1708 M 285.87237,581.3123 249.0018,541.9164 m 184.85792,187.1307 -41.66879,-41.6687 m 872.01497,710.233 32.7037,32.7037 m -152.4453,-130.5021 39.375,-39.375" />
  </g>
</svg>
