<?xml version="1.0" encoding="UTF-8" standalone="no"?>
<!-- Created with Inkscape (http://www.inkscape.org/) -->

<svg
   xmlns:dc="http://purl.org/dc/elements/1.1/"
   xmlns:cc="http://creativecommons.org/ns#"
   xmlns:rdf="http://www.w3.org/1999/02/22-rdf-syntax-ns#"
   xmlns:svg="http://www.w3.org/2000/svg"
   xmlns="http://www.w3.org/2000/svg"
   xmlns:xlink="http://www.w3.org/1999/xlink"
   xmlns:sodipodi="http://sodipodi.sourceforge.net/DTD/sodipodi-0.dtd"
   xmlns:inkscape="http://www.inkscape.org/namespaces/inkscape"
   width="100%"
   height="100%"
   viewBox="0 0 1962.131 866.71429"
   id="svg2"
   version="1.1"
   inkscape:version="0.48.4 r9939"
   sodipodi:docname="map-vj-va-1.svg">
  <defs
     id="defs4" />
  <sodipodi:namedview
     id="base"
     pagecolor="#ffffff"
     bordercolor="#666666"
     borderopacity="1.0"
     inkscape:pageopacity="0.0"
     inkscape:pageshadow="2"
     inkscape:zoom="0.35"
     inkscape:cx="662.52484"
     inkscape:cy="247.4658"
     inkscape:document-units="px"
     inkscape:current-layer="layer1"
     showgrid="false"
     fit-margin-top="0"
     fit-margin-left="0"
     fit-margin-right="0"
     fit-margin-bottom="0"
     inkscape:window-width="681"
     inkscape:window-height="754"
     inkscape:window-x="0"
     inkscape:window-y="12"
     inkscape:window-maximized="0" />
  <metadata
     id="metadata7">
    <rdf:RDF>
      <cc:Work
         rdf:about="">
        <dc:format>image/svg+xml</dc:format>
        <dc:type
           rdf:resource="http://purl.org/dc/dcmitype/StillImage" />
        <dc:title />
      </cc:Work>
    </rdf:RDF>
  </metadata>
  <g
     inkscape:label="Layer 1"
     inkscape:groupmode="layer"
     id="layer1"
     transform="translate(534.84532,-20.790753)">
    <a
       id="a4048"
       xlink:href="http://www.evolutek.org/">
      <text
         sodipodi:linespacing="125%"
         id="text3947"
         y="765.93323"
         x="1043.5924"
         style="font-size:28px;font-style:normal;font-weight:normal;line-height:125%;letter-spacing:0px;word-spacing:0px;fill:#000000;fill-opacity:1;stroke:none;font-family:Sans"
         xml:space="preserve"><tspan
           y="765.93323"
           x="1043.5924"
           id="tspan3949"
           sodipodi:role="line">Evolutek</tspan></text>
    </a>
    <a
       id="a4043"
       xlink:href="https://gistre.epita.fr/">
      <text
         sodipodi:linespacing="125%"
         id="text3951"
         y="345.21933"
         x="930.28687"
         style="font-size:32.0000003px;font-style:normal;font-weight:normal;text-align:center;line-height:125%;letter-spacing:0px;word-spacing:0px;text-anchor:middle;fill:#000000;fill-opacity:1;stroke:none;font-family:Sans"
         xml:space="preserve"><tspan
           y="345.21933"
           x="930.28687"
           id="tspan3953"
           sodipodi:role="line">Laboratoire</tspan><tspan
           id="tspan3955"
           y="375.21933"
           x="930.28687"
           sodipodi:role="line">GISTRE</tspan></text>
    </a>
    <text
       xml:space="preserve"
       style="font-size:32px;font-style:normal;font-weight:normal;text-align:center;line-height:125%;letter-spacing:0px;word-spacing:0px;text-anchor:middle;fill:#000000;fill-opacity:1;stroke:none;font-family:Sans"
       x="393.02676"
       y="339.50504"
       id="text3957"
       sodipodi:linespacing="125%"><tspan
         sodipodi:role="line"
         id="tspan3959"
         x="393.02676"
         y="339.50504">Laboratoire</tspan><tspan
         sodipodi:role="line"
         x="393.02676"
         y="379.50504"
         id="tspan3961">SCIA</tspan></text>
    <a
       id="a4441"
       xlink:href="http://www.tcom.epita.fr/">
      <text
         sodipodi:linespacing="125%"
         id="text3963"
         y="344.28098"
         x="-235.20866"
         style="font-size:32.0000003px;font-style:normal;font-weight:normal;text-align:center;line-height:125%;letter-spacing:0px;word-spacing:0px;text-anchor:middle;fill:#000000;fill-opacity:1;stroke:none;font-family:Sans"
         xml:space="preserve"><tspan
           y="344.28098"
           x="-235.20866"
           id="tspan3965"
           sodipodi:role="line">Laboratoire</tspan><tspan
           id="tspan3967"
           y="374.28098"
           x="-235.20866"
           sodipodi:role="line">TCOM</tspan></text>
    </a>
    <text
       xml:space="preserve"
       style="font-size:32px;font-style:normal;font-weight:normal;line-height:125%;letter-spacing:0px;word-spacing:0px;fill:#000000;fill-opacity:1;stroke:none;font-family:Sans"
       x="-213.85641"
       y="778.66821"
       id="text3969"
       sodipodi:linespacing="125%"><tspan
         sodipodi:role="line"
         x="-213.85641"
         y="778.66821"
         id="tspan3848">Local Bocal</tspan></text>
    <text
       xml:space="preserve"
       style="font-size:32px;font-style:normal;font-weight:normal;text-align:center;line-height:125%;letter-spacing:0px;word-spacing:0px;text-anchor:middle;fill:#000000;fill-opacity:1;stroke:none;font-family:Sans"
       x="760.25031"
       y="744.32288"
       id="text3973"
       sodipodi:linespacing="125%"><tspan
         sodipodi:role="line"
         id="tspan3975"
         x="760.25031"
         y="744.32288">Laboratoire</tspan><tspan
         sodipodi:role="line"
         x="760.25031"
         y="784.32288"
         id="tspan3977">électronique</tspan></text>
    <text
       xml:space="preserve"
       style="font-size:24px;font-style:normal;font-weight:normal;text-align:center;line-height:125%;letter-spacing:0px;word-spacing:0px;text-anchor:middle;fill:#000000;fill-opacity:1;stroke:none;font-family:Sans"
       x="30.994987"
       y="395.763"
       id="text3979"
       sodipodi:linespacing="125%"><tspan
         sodipodi:role="line"
         id="tspan3981"
         x="30.994987"
         y="395.763">Toilettes</tspan><tspan
         sodipodi:role="line"
         x="30.994987"
         y="425.763"
         id="tspan3983">mixtes</tspan><tspan
         sodipodi:role="line"
         x="30.994987"
         y="455.763"
         id="tspan3075">et douches</tspan></text>
    <path
       id="path4001"
       style="fill:none;stroke:#000000;stroke-width:2;stroke-linecap:butt;stroke-linejoin:miter;stroke-miterlimit:4;stroke-opacity:1;stroke-dasharray:none"
       d="m -466.81674,289.44447 67.93276,0 m -67.80649,11.49046 67.68022,0 m -67.42768,11.49047 67.17514,0 m -67.55395,11.4905 67.93276,0 m -68.1853,11.49052 68.43783,0 m -68.18529,11.4905 67.93276,0 m -66.79634,11.49048 65.65992,0 m -67.17515,11.49045 68.69037,0 m -68.5641,11.4905 68.43783,0"
       inkscape:connector-curvature="0" />
    <path
       inkscape:connector-curvature="0"
       id="path4001-6"
       style="fill:none;stroke:#000000;stroke-width:2;stroke-linecap:butt;stroke-linejoin:miter;stroke-miterlimit:4;stroke-opacity:1;stroke-dasharray:none"
       d="m 1234.7432,289.58752 67.9327,0 m -67.8064,11.49046 67.6802,0 m -67.4277,11.49047 67.1751,0 m -67.5539,11.4905 67.9327,0 m -68.1853,11.49052 68.4379,0 m -68.1853,11.4905 67.9327,0 m -66.7963,11.49048 65.6599,0 m -67.1751,11.49045 68.6903,0 m -68.5641,11.4905 68.4379,0" />
    <path
       inkscape:connector-curvature="0"
       id="path4001-8"
       style="fill:none;stroke:#000000;stroke-width:2;stroke-linecap:butt;stroke-linejoin:miter;stroke-miterlimit:4;stroke-opacity:1;stroke-dasharray:none"
       d="m 132.33221,710.51264 67.93276,0 m -67.80649,11.49046 67.68022,0 m -67.42768,11.49047 67.17514,0 m -67.55395,11.4905 67.93276,0 m -68.1853,11.49052 68.43783,0 m -68.18529,11.4905 67.93276,0 m -66.79634,11.49048 65.65992,0 m -67.17515,11.49045 68.69037,0 m -68.5641,11.4905 68.43783,0" />
    <text
       xml:space="preserve"
       style="font-size:18px;font-style:normal;font-weight:normal;line-height:125%;letter-spacing:0px;word-spacing:0px;fill:#000000;fill-opacity:1;stroke:none;font-family:Sans"
       x="1174.256"
       y="789.5199"
       id="text4029"
       sodipodi:linespacing="125%"><tspan
         sodipodi:role="line"
         id="tspan4031"
         x="1174.256"
         y="789.5199">Reprographie</tspan></text>
    <g
       id="g4095"
       transform="matrix(0.11217503,0,0,0.11217503,1174.7777,608.41748)">
      <rect
         ry="50"
         rx="50"
         y="6.3000002"
         x="6.3000002"
         height="387.5"
         width="387.5"
         id="rectBordo"
         style="fill:#ffffff;fill-opacity:1;fill-rule:evenodd;stroke:#000000;stroke-width:12.5;stroke-miterlimit:4;stroke-opacity:1;stroke-dasharray:none" />
      <rect
         y="125"
         x="40"
         height="235"
         width="320"
         id="rectAscensore"
         style="fill:none;stroke:#000000;stroke-width:12.5;stroke-miterlimit:4;stroke-opacity:1;stroke-dasharray:none" />
      <g
         id="gUomini">
        <path
           sodipodi:nodetypes="csssscccccsccccscccccc"
           id="pathUomo"
           d="m 200,156 c -8.3,0 -15,6.7 -15,15 0,8.3 6.7,15 15,15 8.3,0 15,-6.7 15,-15 0,-8.3 -6.7,-15 -15,-15 z m -20.7,33 c -5.7,0 -10.3,4.5 -10.3,10 l 0,60 c 0,5.5 4.3,10 10,10 l 0,77 c 0,4.4 3.6,8 8,8 4.4,0 8,-3.6 8,-8 l 0,-77 10,0 c 0,0 0,77 0,77 0,4.4 3.6,8 8,8 4.4,0 8,-3.6 8,-8 l 0,-77 c 5.7,0 10,-4.5 10,-10 l 0,-60 c 0,-5.5 -4.6,-10 -10.3,-10 l -41.4,0 z"
           style="fill:#000000;fill-opacity:1;fill-rule:evenodd;stroke:none"
           inkscape:connector-curvature="0" />
        <use
           x="-90"
           y="0"
           xlink:href="#pathUomo"
           id="useUomo2"
           width="400"
           height="400" />
        <use
           x="90"
           y="0"
           xlink:href="#pathUomo"
           id="useUomo3"
           width="400"
           height="400" />
      </g>
      <path
         sodipodi:nodetypes="cccccccc"
         id="pathFrecciaSu"
         d="m 96,63 29,-38 29,38 -19,0 0,42 -20,0 0,-42 -19,0 z"
         style="fill:#000000;fill-opacity:1;fill-rule:evenodd;stroke:none"
         inkscape:connector-curvature="0" />
      <use
         height="400"
         width="400"
         transform="scale(1,-1)"
         id="useFrecciaGiu"
         xlink:href="#pathFrecciaSu"
         y="-134"
         x="150" />
    </g>
    <text
       xml:space="preserve"
       style="font-size:28px;font-style:normal;font-weight:normal;text-align:center;line-height:125%;letter-spacing:0px;word-spacing:0px;text-anchor:middle;fill:#000000;fill-opacity:1;stroke:none;font-family:Sans"
       x="362.42532"
       y="728.21936"
       id="text3025"
       sodipodi:linespacing="125%"><tspan
         sodipodi:role="line"
         id="tspan3027"
         x="362.42532"
         y="728.21936">Local</tspan><tspan
         sodipodi:role="line"
         x="362.42532"
         y="763.21936"
         id="tspan3029">laboratoire</tspan><tspan
         sodipodi:role="line"
         x="362.42532"
         y="798.21936"
         id="tspan3031">électronique</tspan></text>
    <text
       xml:space="preserve"
       style="font-size:28px;font-style:normal;font-weight:normal;text-align:center;line-height:125%;letter-spacing:0px;word-spacing:0px;text-anchor:middle;fill:#000000;fill-opacity:1;stroke:none;font-family:Sans"
       x="30.841627"
       y="240.22963"
       id="text3025-3"
       sodipodi:linespacing="125%"><tspan
         sodipodi:role="line"
         id="tspan3027-1"
         x="30.841627"
         y="240.22963">Local</tspan><tspan
         sodipodi:role="line"
         x="30.841627"
         y="275.22964"
         id="tspan3029-7">laboratoire</tspan><tspan
         sodipodi:role="line"
         x="30.841627"
         y="310.22964"
         id="tspan3031-8">électronique</tspan></text>
    <path
       style="fill:none;stroke:#000000;stroke-width:1px;stroke-linecap:butt;stroke-linejoin:miter;stroke-opacity:1"
       d="m 1115.4609,189.91208 33.8402,0"
       id="path3063"
       inkscape:connector-curvature="0"
       transform="translate(-534.84532,20.790747)" />
    <text
       xml:space="preserve"
       style="font-size:16px;font-style:normal;font-weight:normal;text-align:center;line-height:125%;letter-spacing:0px;word-spacing:0px;text-anchor:middle;fill:#000000;fill-opacity:1;stroke:none;font-family:Sans"
       x="83.89016"
       y="731.45959"
       id="text3065"
       sodipodi:linespacing="125%"><tspan
         sodipodi:role="line"
         id="tspan3067"
         x="83.89016"
         y="731.45959">Local</tspan><tspan
         sodipodi:role="line"
         x="83.89016"
         y="751.45959"
         id="tspan3069">technique</tspan><tspan
         sodipodi:role="line"
         x="83.89016"
         y="771.45959"
         id="tspan3071">et</tspan><tspan
         sodipodi:role="line"
         x="83.89016"
         y="791.45959"
         id="tspan3073">entretiens</tspan></text>
    <path
       id="path3077"
       transform="translate(-534.84532,20.790747)"
       style="fill:none;stroke:#000000;stroke-width:6;stroke-linecap:butt;stroke-linejoin:miter;stroke-miterlimit:4;stroke-opacity:1;stroke-dasharray:none"
       d="m 409.11178,634.88428 0,228.29448 m 1422.87642,-292.32161 127.1428,0 0,-126.42858 m -512.1179,-345.227937 124.7538,0 m -771.25146,685.388507 -66.67007,0 0,-100.51018 m -263.28576,-380.36467 195,0 m 0,165 0,-188.39286 m 0,-54.10714 0,-222.69126 m -194.3539,464.38328 0,-278.29703 m -335.37065,278.80211 0,-278.62567 M 3,266.38088 l 64.64977,0 0,100.0051 m 732.36059,103.03556 0,-280.31733 0,-6.70462 m 0,-30.27605 0,-146.980677 647.69214,0 0,112.493847 m 0,54.73169 0,16.34589 m -374.3161,280.70725 0,-279.81225 m 183.2446,0.53357 0,253.57143 M 1704.4882,265.5 l 65.3571,0 0,99.64286 m -130,103.57143 0,-280 m 65,280.71428 0,-280.71428 m 53.9286,381.07143 0,81.78571 m -53.5715,0 62.1429,0 m 42.8572,0 23.5714,0 m -128.2143,-81.78571 0,293.21428 m -128.7419,-0.12404 0,-262.13459 m -578.31236,3.53554 0,8.57833 m 0,33.57834 0,216.44238 M 800.55961,863 l 0,-292.85714 m -132.85715,293.57143 0,-293.21429 m -96.42857,292.5 0,-294.28571 m -298.57143,293.57143 0,-293.57143 m 1522.67854,-98.92857 -7.4202,0 m -46.8161,0 -48.1753,0 m -36.5586,0 -31.5078,0 m -37.5015,-0.002 -265.7959,-0.002 c -4.0598,-3.60158 -3.1261,-2.7434 -8.5495,-6.47872 m -29.7957,-16.97575 c -16.9746,-5.93716 -33.1759,-5.6623 -49.2042,0.48966 m -27.7368,15.44722 c -4.4396,3.81136 -3.9074,3.07486 -8.0914,7.52155 l -214.29621,0 m -35.80097,0 -31.76035,0 m -38.10353,0 -112.85482,0 m -64.08524,0 -113.16902,0 m -34.93258,0 -92.07545,0 m -32.72231,0 -244.0904,0 m -30.7502,0 -49.9431,0 m -57.51925,0 -42.87203,0 M 3,569.91589 l 406.1129,0.008 -0.0158,23.04313 m -0.008,32.95013 -0.008,8.66442 6.78237,0 m 46.06808,0 109.27903,0 m 1224.30492,-86.62062 0,21.97082 38.3858,0 0,293.19678 -1053.68741,-0.0161 m -90.20528,-0.008 -499.82214,-0.008 m -37.82659,-0.0161 -148.94336,-0.0161 0,-672.92134 700.8154,0 m 56.33808,0 119.13933,0 m 34.28652,0 203.96965,0 m 29.8419,0 339.842,0 m 58.4736,0 290.8087,0 0,279.78376 -41.4162,0 0,23.73858 M 729.84532,3.52303 l 0,142.33412 70.35714,0 m 995.31324,424.05883 -7.4261,0 m -22.4261,0 -19.8523,0 m -568.9908,0 96.011,0.004 m 40.9344,0.002 196.4979,0.002 -0.1161,31.3226 14.3947,0 m 26.5164,0 50.7602,0 m 25.3801,0 13.7633,0 0.011,-31.32267 75.8481,-0.008 m -571.6389,0.004 -81.9954,0.004 -0.032,35.11067 -14.9945,0 m -22.5706,0 -96.53269,0 0.0473,-35.23694 -166.21745,0.1184 m -54.91837,0 -54.91837,0 m -34.51736,0 -150.23165,0 0,23.68487 m 0,33.62815 0,7.91386"
       inkscape:connector-curvature="0"
       sodipodi:nodetypes="ccccccccccccccccccccccccccccccccccccccccccccccccccccccccccccccccccccccccccccccccccccccccccccccccccccccccccccccccccccccccccccccccccccccccccccccccccccccccccccc" />
    <path
       id="path3852"
       transform="translate(-534.84532,20.790747)"
       style="fill:none;stroke:#000000;stroke-width:1px;stroke-linecap:butt;stroke-linejoin:miter;stroke-opacity:1"
       d="m 409.28571,628.85715 0,-38.21429 m 860.98109,-20.66088 46.2145,0 m -439.41635,-379.81734 38.89087,0 m -228.07239,673.2164 94.44926,0 m 817.71851,-262.13458 30.052,0 m -107.5812,0.50507 30.3045,0 m 213.3948,50.00256 44.9517,0 m -47.7297,-81.82236 26.7691,0 m 5.0507,-19.95051 0,-59.85154 m -56.0634,-20.20305 50.2551,0 m -134.0978,-0.25254 39.901,0 m -109.8541,0.25254 42.679,0 m -142.684,-279.81226 61.8718,0 m -99.7525,-14.89975 0,-60.10408 m -165.8872,330.38947 32.3215,18.39286 m -109.1072,-0.89286 30.3572,-16.60714 m -91.4877,123.03378 35.9589,0 m -155.9146,35.60788 27.5267,0 m -52.27538,42.67894 0,-36.61802 m -52.78048,-141.6739 39.7404,0 m -109.44092,0.50508 41.41625,0 m -118.18784,-286.12571 0,-33.33504 m -100.25764,318.95567 68.94291,0 m -103.24064,-187.85011 0,-57.85714 m 37.14286,-34.28572 60,0 m -146.07143,380 38.21429,0 m -503.92857,293.92858 43.21428,0 m 220.35714,-228.92858 50,0 m 4.28572,-42.85714 0,37.14286 m 83.8537,-159.04021 39.39595,0 m -164.85679,-0.0669 35.71428,0 m -310.17857,0.35711 32.85714,0 m -140.71428,-0.17857 61.42857,0" />
  </g>
</svg>
